<svg xmlns="http://www.w3.org/2000/svg" viewBox="0 0 1280 1230" font-family="Segoe UI, Roboto, Arial, sans-serif">
<rect x="0" y="0" width="1280" height="1230" fill="#f7f6f3"/>
<text x="32" y="40" font-size="19" font-weight="700" fill="#1a3868">Mentálna mapa</text>
<text x="32" y="59" font-size="12.5" fill="#6b7280">ING I 06 · esencia odpovede k bodom tézy</text>
<path d="M 490.0 630.2 C 420.0 630.2, 540.0 170.2, 470.0 170.2" stroke="#00adbd" stroke-width="2.5" fill="none" opacity="0.85"/>
<path d="M 490.0 630.2 C 420.0 630.2, 540.0 400.2, 470.0 400.2" stroke="#f26539" stroke-width="2.5" fill="none" opacity="0.85"/>
<path d="M 490.0 630.2 C 420.0 630.2, 540.0 638.5, 470.0 638.5" stroke="#28b065" stroke-width="2.5" fill="none" opacity="0.85"/>
<path d="M 490.0 630.2 C 420.0 630.2, 540.0 876.8, 470.0 876.8" stroke="#803594" stroke-width="2.5" fill="none" opacity="0.85"/>
<path d="M 490.0 630.2 C 420.0 630.2, 540.0 1098.5, 470.0 1098.5" stroke="#6a6eb3" stroke-width="2.5" fill="none" opacity="0.85"/>
<path d="M 790.0 630.2 C 860.0 630.2, 740.0 254.5, 810.0 254.5" stroke="#9a562a" stroke-width="2.5" fill="none" opacity="0.85"/>
<path d="M 790.0 630.2 C 860.0 630.2, 740.0 492.8, 810.0 492.8" stroke="#e6251e" stroke-width="2.5" fill="none" opacity="0.85"/>
<path d="M 790.0 630.2 C 860.0 630.2, 740.0 732.2, 810.0 732.2" stroke="#0e7490" stroke-width="2.5" fill="none" opacity="0.85"/>
<path d="M 790.0 630.2 C 860.0 630.2, 740.0 980.0, 810.0 980.0" stroke="#b45309" stroke-width="2.5" fill="none" opacity="0.85"/>
<rect x="490.0" y="579.8" width="300" height="101.0" rx="15" fill="#1a3868"/>
<text x="640.0" y="612.8" font-size="18.0" font-weight="700" fill="#ffffff" text-anchor="middle">Konsolidovaná účtovná</text>
<text x="640.0" y="635.8" font-size="18.0" font-weight="700" fill="#ffffff" text-anchor="middle">závierka podľa IFRS a</text>
<text x="640.0" y="658.8" font-size="18.0" font-weight="700" fill="#ffffff" text-anchor="middle">jej právna úprava v SR</text>
<rect x="90.0" y="70.0" width="380" height="200.5" rx="12" fill="#ffffff" stroke="#00adbd" stroke-width="2.5"/>
<rect x="90.0" y="70.0" width="7" height="200.5" rx="3.5" fill="#00adbd"/>
<text x="107.0" y="97.0" font-size="14.5" font-weight="700" fill="#1a3868">1. Podstata, účel a využitie informácií</text>
<text x="107.0" y="121.0" font-size="13.0" fill="#374151">KÚZ je informačný nástroj pre externých adresátov</text>
<text x="107.0" y="137.5" font-size="13.0" fill="#374151">(investori, banky) aj na riadenie matkou; nie je</text>
<text x="107.0" y="154.0" font-size="13.0" fill="#374151">podkladom pre daň (daňovo neúčinná) ani pre podiely</text>
<text x="107.0" y="170.5" font-size="13.0" fill="#374151">na zisku. Stojí na teórii ekonomickej jednotky</text>
<text x="107.0" y="187.0" font-size="13.0" fill="#374151">(skupina ako jeden podnik – úplná konsolidácia</text>
<text x="107.0" y="203.5" font-size="13.0" fill="#374151">preberá 100 % majetku, záväzkov, nákladov, výnosov</text>
<text x="107.0" y="220.0" font-size="13.0" fill="#374151">dcéry, cudzí podiel ako nekontrolujúce podiely) a</text>
<text x="107.0" y="236.5" font-size="13.0" fill="#374151">teórii záujmov vlastníkov (podielová konsolidácia v</text>
<text x="107.0" y="253.0" font-size="13.0" fill="#374151">IFRS zrušená od 2014).</text>
<rect x="90.0" y="290.5" width="380" height="219.5" rx="12" fill="#ffffff" stroke="#f26539" stroke-width="2.5"/>
<rect x="90.0" y="290.5" width="7" height="219.5" rx="3.5" fill="#f26539"/>
<text x="107.0" y="317.5" font-size="14.5" font-weight="700" fill="#1a3868">2. Kto a koho konsoliduje – ovládanie podľa</text>
<text x="107.0" y="336.5" font-size="14.5" font-weight="700" fill="#1a3868">IFRS 10 a § 22</text>
<text x="107.0" y="360.5" font-size="13.0" fill="#374151">Matka konsoliduje dcéry, ktoré OVLÁDA. Podľa IFRS 10</text>
<text x="107.0" y="377.0" font-size="13.0" fill="#374151">ovládanie = súčasne moc + vystavenie variabilným</text>
<text x="107.0" y="393.5" font-size="13.0" fill="#374151">výnosom + schopnosť použiť moc na ich ovplyvnenie.</text>
<text x="107.0" y="410.0" font-size="13.0" fill="#374151">SR (par.22/3): rozhodujúci vplyv – väčšina hlasov,</text>
<text x="107.0" y="426.5" font-size="13.0" fill="#374151">právo menovať väčšinu orgánu, vplyv z dohody/stanov.</text>
<text x="107.0" y="443.0" font-size="13.0" fill="#374151">Ovládanie priamo alebo nepriamo cez dcéry.</text>
<text x="107.0" y="459.5" font-size="13.0" fill="#374151">Pridružené (podstatný vplyv) a spoločné podniky sa</text>
<text x="107.0" y="476.0" font-size="13.0" fill="#374151">nezahŕňajú úplnou konsolidáciou, ale metódou</text>
<text x="107.0" y="492.5" font-size="13.0" fill="#374151">vlastného imania (IAS 28).</text>
<rect x="90.0" y="530.0" width="380" height="217.0" rx="12" fill="#ffffff" stroke="#28b065" stroke-width="2.5"/>
<rect x="90.0" y="530.0" width="7" height="217.0" rx="3.5" fill="#28b065"/>
<text x="107.0" y="557.0" font-size="14.5" font-weight="700" fill="#1a3868">3. Proces prípravy a zostavenia KÚZ</text>
<text x="107.0" y="581.0" font-size="13.0" fill="#374151">Tri fázy. Predkonsolidačné úpravy: deň závierky</text>
<text x="107.0" y="597.5" font-size="13.0" fill="#374151">matky, závierky k rovnakému dátumu (rozdiel max. 3</text>
<text x="107.0" y="614.0" font-size="13.0" fill="#374151">mesiace), zjednotenie formy, účtovnej politiky a</text>
<text x="107.0" y="630.5" font-size="13.0" fill="#374151">meny (IAS 21), pri akvizícii akvizičná metóda IFRS 3</text>
<text x="107.0" y="647.0" font-size="13.0" fill="#374151">(reálne hodnoty, NP, goodwill). Konsolidačné úpravy</text>
<text x="107.0" y="663.5" font-size="13.0" fill="#374151">(IFRS 10): konsolidácia kapitálu (eliminácia</text>
<text x="107.0" y="680.0" font-size="13.0" fill="#374151">investície proti VI dcéry), eliminácia vzájomných</text>
<text x="107.0" y="696.5" font-size="13.0" fill="#374151">pohľadávok/záväzkov, medzizisku a vzájomných</text>
<text x="107.0" y="713.0" font-size="13.0" fill="#374151">nákladov/výnosov – v plnej výške. Záver:</text>
<text x="107.0" y="729.5" font-size="13.0" fill="#374151">konsolidované výkazy a poznámky (IAS 1, IAS 7).</text>
<rect x="90.0" y="767.0" width="380" height="219.5" rx="12" fill="#ffffff" stroke="#803594" stroke-width="2.5"/>
<rect x="90.0" y="767.0" width="7" height="219.5" rx="3.5" fill="#803594"/>
<text x="107.0" y="794.0" font-size="14.5" font-weight="700" fill="#1a3868">4. Štruktúra a obsah KÚZ podľa IFRS a</text>
<text x="107.0" y="813.0" font-size="14.5" font-weight="700" fill="#1a3868">osobitosti oproti individuálnej ÚZ matky</text>
<text x="107.0" y="837.0" font-size="13.0" fill="#374151">KÚZ tvorí rovnaká sústava výkazov ako individuálna</text>
<text x="107.0" y="853.5" font-size="13.0" fill="#374151">(IAS 1) – súvaha, výsledovka + OCI, výkaz zmien VI,</text>
<text x="107.0" y="870.0" font-size="13.0" fill="#374151">cash flow (IAS 7), poznámky (nekonsolidujú sa).</text>
<text x="107.0" y="886.5" font-size="13.0" fill="#374151">Osobitosti: niektoré položky eliminované; ZI v KÚZ =</text>
<text x="107.0" y="903.0" font-size="13.0" fill="#374151">ZI matky; len v KÚZ sú goodwill, investície metódou</text>
<text x="107.0" y="919.5" font-size="13.0" fill="#374151">VI a nekontrolujúce podiely (súčasť VI). Vo</text>
<text x="107.0" y="936.0" font-size="13.0" fill="#374151">výsledovke samostatne výsledok pripadajúci</text>
<text x="107.0" y="952.5" font-size="13.0" fill="#374151">vlastníkom matky a NP a podiel na zisku</text>
<text x="107.0" y="969.0" font-size="13.0" fill="#374151">pridružených/spoločných podnikov.</text>
<rect x="90.0" y="1006.5" width="380" height="184.0" rx="12" fill="#ffffff" stroke="#6a6eb3" stroke-width="2.5"/>
<rect x="90.0" y="1006.5" width="7" height="184.0" rx="3.5" fill="#6a6eb3"/>
<text x="107.0" y="1033.5" font-size="14.5" font-weight="700" fill="#1a3868">5. Zverejňovanie v poznámkach podľa IFRS 12</text>
<text x="107.0" y="1057.5" font-size="13.0" fill="#374151">IFRS 12 (zverejnenia podielov v iných ÚJ) vyžaduje</text>
<text x="107.0" y="1074.0" font-size="13.0" fill="#374151">informácie na posúdenie povahy a rizík podielov v</text>
<text x="107.0" y="1090.5" font-size="13.0" fill="#374151">dcérach, spoločných dohodách, pridružených a</text>
<text x="107.0" y="1107.0" font-size="13.0" fill="#374151">štruktúrovaných jednotkách a ich vplyvu. Nahradil</text>
<text x="107.0" y="1123.5" font-size="13.0" fill="#374151">zverejnenia z IAS 27/28/31. Poznámky KÚZ navyše:</text>
<text x="107.0" y="1140.0" font-size="13.0" fill="#374151">vyhlásenie o súlade s IFRS prevzatými EÚ, údaje o</text>
<text x="107.0" y="1156.5" font-size="13.0" fill="#374151">konsolidovanom celku, opis konsolidácie jednotlivých</text>
<text x="107.0" y="1173.0" font-size="13.0" fill="#374151">podielov; tiež IFRS 3 a IAS 36.</text>
<rect x="810.0" y="154.2" width="380" height="200.5" rx="12" fill="#ffffff" stroke="#9a562a" stroke-width="2.5"/>
<rect x="810.0" y="154.2" width="7" height="200.5" rx="3.5" fill="#9a562a"/>
<text x="827.0" y="181.2" font-size="14.5" font-weight="700" fill="#1a3868">6. Individuálna/separátna ÚZ podľa IAS 27</text>
<text x="827.0" y="205.2" font-size="13.0" fill="#374151">IAS 27 upravuje individuálnu (separátnu) ÚZ –</text>
<text x="827.0" y="221.8" font-size="13.0" fill="#374151">zostavuje ju matka popri KÚZ, oslobodený investor</text>
<text x="827.0" y="238.2" font-size="13.0" fill="#374151">alebo investičná jednotka. Kľúčové je oceňovanie</text>
<text x="827.0" y="254.8" font-size="13.0" fill="#374151">podielov: investície do dcér/spoločných/pridružených</text>
<text x="827.0" y="271.2" font-size="13.0" fill="#374151">podnikov v obstarávacej cene, podľa IFRS 9 (reálna</text>
<text x="827.0" y="287.8" font-size="13.0" fill="#374151">hodnota) alebo metódou VI (IAS 28). Dividendy do VH</text>
<text x="827.0" y="304.2" font-size="13.0" fill="#374151">pri vzniku práva (okrem metódy VI, kde znižujú</text>
<text x="827.0" y="320.8" font-size="13.0" fill="#374151">hodnotu investície). KÚZ NIE JE to isté ako</text>
<text x="827.0" y="337.2" font-size="13.0" fill="#374151">individuálna ÚZ matky.</text>
<rect x="810.0" y="374.8" width="380" height="236.0" rx="12" fill="#ffffff" stroke="#e6251e" stroke-width="2.5"/>
<rect x="810.0" y="374.8" width="7" height="236.0" rx="3.5" fill="#e6251e"/>
<text x="827.0" y="401.8" font-size="14.5" font-weight="700" fill="#1a3868">7. Povinnosť zostaviť KÚZ v SR a oslobodenia</text>
<text x="827.0" y="420.8" font-size="14.5" font-weight="700" fill="#1a3868">(§ 22)</text>
<text x="827.0" y="444.8" font-size="13.0" fill="#374151">Povinnosť má MÚJ s rozhodujúcim vplyvom (par.22/3).</text>
<text x="827.0" y="461.2" font-size="13.0" fill="#374151">Oslobodenia: 1) na medzistupni – matka je dcérou</text>
<text x="827.0" y="477.8" font-size="13.0" fill="#374151">matky z členského štátu vlastniacej 100 % alebo</text>
<text x="827.0" y="494.2" font-size="13.0" fill="#374151">aspoň 90 % so súhlasom (neplatí pre emitentov CP);</text>
<text x="827.0" y="510.8" font-size="13.0" fill="#374151">2) podľa veľkostných kritérií – oslobodenie ak nie</text>
<text x="827.0" y="527.2" font-size="13.0" fill="#374151">sú splnené aspoň DVE z troch: brutto (súčet IÚZ)</text>
<text x="827.0" y="543.8" font-size="13.0" fill="#374151">majetok &gt; 30 mil., obrat &gt; 60 mil., &gt; 250</text>
<text x="827.0" y="560.2" font-size="13.0" fill="#374151">zamestnancov, alebo netto (po konsolidácii)</text>
<text x="827.0" y="576.8" font-size="13.0" fill="#374151">25/50/250. Neplatí pri subjekte verejného záujmu. 3)</text>
<text x="827.0" y="593.2" font-size="13.0" fill="#374151">nevýznamnosť dcéry; 4) len nezahrnuteľné dcéry.</text>
<rect x="810.0" y="630.8" width="380" height="203.0" rx="12" fill="#ffffff" stroke="#0e7490" stroke-width="2.5"/>
<rect x="810.0" y="630.8" width="7" height="203.0" rx="3.5" fill="#0e7490"/>
<text x="827.0" y="657.8" font-size="14.5" font-weight="700" fill="#1a3868">8. Osobitosti konsolidácie vo verejnej správe</text>
<text x="827.0" y="676.8" font-size="14.5" font-weight="700" fill="#1a3868">(§ 22a)</text>
<text x="827.0" y="700.8" font-size="13.0" fill="#374151">KÚZ verejnej správy zostavuje správca kapitoly, obec</text>
<text x="827.0" y="717.2" font-size="13.0" fill="#374151">a VÚC z individuálnych závierok svojich organizácií</text>
<text x="827.0" y="733.8" font-size="13.0" fill="#374151">a dcér. KÚZ ústrednej správy zostavuje ministerstvo</text>
<text x="827.0" y="750.2" font-size="13.0" fill="#374151">(financií) za všetky kapitoly z KÚZ správcov.</text>
<text x="827.0" y="766.8" font-size="13.0" fill="#374151">Súhrnnú ÚZ verejnej správy zostavuje ministerstvo z</text>
<text x="827.0" y="783.2" font-size="13.0" fill="#374151">KÚZ ústrednej správy a KÚZ subjektov verejnej</text>
<text x="827.0" y="799.8" font-size="13.0" fill="#374151">správy. Overuje audítor; zostavuje sa postupmi podľa</text>
<text x="827.0" y="816.2" font-size="13.0" fill="#374151">opatrení MF SR, NIE podľa IFRS.</text>
<rect x="810.0" y="853.8" width="380" height="252.5" rx="12" fill="#ffffff" stroke="#b45309" stroke-width="2.5"/>
<rect x="810.0" y="853.8" width="7" height="252.5" rx="3.5" fill="#b45309"/>
<text x="827.0" y="880.8" font-size="14.5" font-weight="700" fill="#1a3868">9. Ďalšie povinnosti matky v SR (výročná</text>
<text x="827.0" y="899.8" font-size="14.5" font-weight="700" fill="#1a3868">správa, výkaz, CbCR)</text>
<text x="827.0" y="923.8" font-size="13.0" fill="#374151">Matka oznamuje dcéram povinnosť KÚZ. Do registra</text>
<text x="827.0" y="940.2" font-size="13.0" fill="#374151">ukladá do 1 roka KÚZ, konsolidovanú výročnú správu,</text>
<text x="827.0" y="956.8" font-size="13.0" fill="#374151">výkaz vybraných údajov a správu audítora (uchováva</text>
<text x="827.0" y="973.2" font-size="13.0" fill="#374151">10 rokov). Konsolidovaná výročná správa (overená)</text>
<text x="827.0" y="989.8" font-size="13.0" fill="#374151">obsahuje KÚZ, informácie o vývoji, rizikách,</text>
<text x="827.0" y="1006.2" font-size="13.0" fill="#374151">výskume; môže obsahovať správu o platbách vládam.</text>
<text x="827.0" y="1022.8" font-size="13.0" fill="#374151">Správu s informáciami o dani z príjmov (CbCR,</text>
<text x="827.0" y="1039.2" font-size="13.0" fill="#374151">par.21a) vyhotovuje konečná MÚJ so skupinou s</text>
<text x="827.0" y="1055.8" font-size="13.0" fill="#374151">cezhraničným dosahom, ak konsolidované výnosy v</text>
<text x="827.0" y="1072.2" font-size="13.0" fill="#374151">dvoch po sebe idúcich obdobiach presiahli 750 mil.</text>
<text x="827.0" y="1088.8" font-size="13.0" fill="#374151">EUR.</text>
</svg>